<svg width="132" height="46" viewBox="0 0 132 46" fill="none" xmlns="http://www.w3.org/2000/svg">
<g clip-path="url(#clip0_175_568)">
<path d="M44.1 28.7326V14.4326H48V28.8326C48 29.6326 48.4 29.9326 48.7 29.9326C48.9 29.9326 49.4 29.9326 49.6 29.9326L49.7 32.9326C49.3 33.1326 48.6 33.0326 47.7 33.0326C45 33.0326 44.1 31.3326 44.1 28.7326Z" fill="#0C0C0C"/>
<path d="M51.1 29.1332C51.1 25.6332 53.3 25.4332 58.5 24.8332C58.4 23.7332 58.1 22.0332 56.6 21.9332C56.1 21.9332 55.2 22.0332 54.8 23.4332L51.3 23.5332C51.9 19.8332 55.1 19.3332 57.2 19.4332C60.5 19.6332 62.5 21.3332 62.5 25.3332L62.7 32.7332H59.3V31.3332C58.3 32.5332 56.5 33.0332 55 33.0332C52.6 33.0332 51.1 31.3332 51.1 29.1332ZM58.6 28.9332V26.6332C55.8 27.0332 54.9 27.7332 54.9 28.7332C54.9 29.5332 55.5 29.9332 56.4 29.9332C57.3 30.0332 57.9 29.6332 58.6 28.9332Z" fill="#0C0C0C"/>
<path d="M64.4 29.133H68C68.4 30.433 69.5 30.433 69.6 30.433C70.7 30.433 71 29.733 71 29.033C71 28.133 69.7 27.833 68.3 27.233C66.7 26.633 64.8 25.533 64.8 23.433C64.8 21.033 66.8 19.333 69.9 19.333C71.9 19.333 74.3 20.633 74.4 22.833L71.2 23.033C70.9 22.633 70.7 22.233 70 22.233C69 22.233 68.5 22.633 68.5 23.233C68.5 24.033 69.7 24.333 71.1 24.833C72.8 25.433 74.7 26.333 74.7 28.733C74.7 31.033 72.8 32.933 69.3 32.933C66 33.033 64.9 31.233 64.4 29.133Z" fill="#0C0C0C"/>
<path d="M77.6 28.033V22.833H75.8V19.933L77.8 19.833V16.333H81.5V19.733H84.7V22.733H81.5V27.933C81.5 29.433 82.2 30.033 83.2 30.033C83.6 30.033 84.8 30.133 85.1 30.033L85.2 32.833C84.2 33.033 83.1 33.133 82.1 33.033C78.9 33.033 77.6 31.033 77.6 28.033Z" fill="#0C0C0C"/>
<path d="M87.3 28.7326V14.4326H91.2V28.8326C91.2 29.6326 91.6 29.9326 91.9 29.9326C92.1 29.9326 92.7 30.0326 92.9 29.9326V32.8326C92.5 33.0326 91.8 32.9326 90.9 32.9326C88.2 33.0326 87.3 31.3326 87.3 28.7326Z" fill="#0C0C0C"/>
<path d="M94.6 15.833C94.6 14.633 95.6 13.833 96.9 13.833C98.2 13.833 99.2 14.633 99.2 15.833C99.2 17.033 98.2 17.833 96.9 17.833C95.5 17.833 94.6 17.033 94.6 15.833ZM94.9 19.733H98.8V32.733H94.9V19.733Z" fill="#0C0C0C"/>
<path d="M102.3 19.733H105.5L105.8 21.333H105.9C107 20.333 108.3 19.333 110.2 19.333C113.1 19.333 114.3 21.333 114.3 24.533V32.533H110.4V25.033C110.4 23.133 109.9 22.633 108.8 22.633C107.8 22.633 107.2 23.033 106.4 23.933V32.633H102.5L102.3 19.733Z" fill="#0C0C0C"/>
<path d="M117.5 14.4326H121.3V24.9326H121.4L125.6 19.8326H129.9L125.3 25.1326L130.3 32.7326H126L123 27.6326L121.3 29.5326V32.7326H117.5V14.4326Z" fill="#0C0C0C"/>
<path d="M37.3 7.53301C37.2 3.13301 33.8 0.833008 30.5 0.833008C27.2 0.833008 23.8 3.13301 23.7 7.53301V7.63301C23.7 8.43301 23.9 9.33301 24.1 10.133L19 15.233C17 13.633 14.5 12.833 12 12.833C6.69998 12.833 1.19998 16.533 1.09998 23.633V23.733C1.19998 30.833 6.69998 34.533 12 34.533C17.3 34.533 22.8 30.833 22.9 23.733V23.633C22.9 22.233 22.6 20.833 22.1 19.533L27.7 13.933C28.6 14.333 29.5 14.433 30.4 14.433C33.9 14.333 37.3 12.033 37.3 7.53301ZM12.1 28.033C10.1 28.033 7.69998 26.833 7.59998 23.633C7.59998 22.033 8.29998 20.933 9.09998 20.233C9.89998 19.533 11.1 19.233 12.1 19.233C14.1 19.233 16.5 20.433 16.6 23.633C16.6 26.833 14.2 28.033 12.1 28.033ZM30.5 9.13301C30 9.13301 28.9 8.93301 28.9 7.53301C29 6.13301 30.1 6.03301 30.5 6.03301C31 6.03301 32.1 6.23301 32.1 7.63301C32.1 8.93301 31 9.13301 30.5 9.13301Z" fill="#34E13C"/>
<path d="M36.1 37.933C36 33.533 32.6 31.233 29.3 31.233C28.1 31.233 26.9 31.533 25.8 32.133L23 29.833C22.3 31.533 21.5 32.533 19.9 33.633L22.7 35.933C22.5 36.633 22.4 37.233 22.4 37.933V38.033C22.5 42.433 25.9 44.733 29.2 44.733C32.6 44.833 36 42.433 36.1 37.933ZM30.2 39.333C29.9 39.533 29.6 39.633 29.2 39.633C28.7 39.633 27.6 39.433 27.6 38.033C27.6 36.633 28.7 36.433 29.2 36.433C29.7 36.433 30.8 36.633 30.8 38.033C30.9 38.733 30.6 39.133 30.2 39.333Z" fill="#34E13C"/>
</g>
<defs>
<clipPath id="clip0_175_568">
<rect width="131.4" height="45.5" fill="white" transform="translate(0 0.0332031)"/>
</clipPath>
</defs>
</svg>
