<?xml version="1.0" encoding="UTF-8"?>
<svg id="Camada_1" xmlns="http://www.w3.org/2000/svg" version="1.1" viewBox="0 0 500 500">
  <!-- Generator: Adobe Illustrator 29.3.1, SVG Export Plug-In . SVG Version: 2.1.0 Build 151)  -->
  <defs>
    <style>
      .st0 {
        fill: #ea1f2c;
      }
    </style>
  </defs>
  <path class="st0" d="M495.25,174.23c0-22.16-6.81-38.74-18.32-50.25l-31.41-31.41c-.13-.13-.26-.24-.39-.36-.71-.7-1.44-1.39-2.19-2.05-.12-.1-.24-.21-.36-.31-.83-.73-1.69-1.44-2.56-2.12-.04-.03-.09-.07-.13-.1-11.7-9.08-26.99-14.08-44.31-15.33-.03,0-.06,0-.09,0-1.39-.1-2.79-.17-4.21-.23-.06,0-.13,0-.19,0-1.45-.05-2.9-.08-4.37-.08-28.73,0-52.95,9.46-66.22,29.75l-.27-.27c1.05-1.4,2.27-2.97,3.31-4.54l-16.58-26.52-31.41-31.41c-7.68,9.42-10.3,10.99-17.1,10.99-2.97,0-5.93-.52-9.6-1.4-6.28-1.57-12.39-2.09-18.85-2.09-15.35,0-26.17,7.15-36.64,22.16l3.84,6.11H7.89v61.77l6.98,6.98v5.58h-6.98v61.77l.21.21v60.76l27.6,27.49v23.4h.03v.33l.06.06c-18.28,6.22-28.64,22.82-28.64,44.32,0,.81.02,1.61.05,2.4,0,.23.02.46.03.69.03.69.07,1.38.12,2.05.03.36.06.71.1,1.06.03.33.06.66.1.98,1.26,11.28,5.52,19.72,11.93,26.1l21.33,21.25c11.73,11.69,30.22,15.58,48.48,15.58,11.03,0,20.85-1.1,30.54-4.06l2.18,2.17h318.36l-.07-.05c12.26-.59,24.85-7.24,24.85-23.33,0-5.67-1.54-10.15-4.15-13.58l6.41-48.15h11.01v-54.13l-6.14-6.12v-4.89h6.14v-54.13l-4.28-4.26c13.18-11.61,21.09-29.03,21.09-52.84ZM230.02,55.23c7.85,0,12.56.87,16.93,1.92,3.84.87,6.98,1.57,11.52,1.57,6.63,0,11.69-1.92,15.53-5.76l7.5,12.04c-7.15,9.42-15.35,13.96-26,13.96-7.85,0-12.56-.87-16.93-1.92-3.84-.87-6.98-1.57-11.52-1.57-6.63,0-11.69,1.92-15.53,5.76l-7.5-12.04c7.15-9.42,15.36-13.96,26-13.96ZM171.04,157.83h6.98l8.38-30.01h-9.77v-44.32h110.28l20.59,74.33h6.98v44.32h-65.61v-48.16h-17.27l-1.4,9.07h11.69v39.09h-70.84v-44.32ZM441.55,276.25v38.84h-59.95v-34.25h6.12v-37.92h-.61l-18.04,72.18h-26.91l-18.04-72.18h-.61v37.92h6.12v34.25h-54.29v-38.84h6.12v-26.3h-6.12v-38.84h75.39l6.12,26.3h.61l6.12-26.3h77.99v38.84h-6.12v26.3h6.12ZM152.08,249.95v-38.84h115.61v48.17h-44.65v-13.92h-15.6v8.41h9.48v18.66h-9.48v8.41h15.6v-13.92h46.18v48.17h-117.14v-38.84h6.12v-26.3h-6.12ZM16.62,157.83h6.98v-30.01h-6.98v-44.32h83.41l13.26,48.86h.7v-48.86h54.96v44.32h-6.98v74.33h-67.7l-21.99-76.78h-.7v37.69h6.98v39.09H16.62v-44.32ZM15.83,263.86v-52.76h130.9v52.76h-34.71v-18.5h-6.12v30.89h13.3v38.84H43.35v-38.84h13.3v-30.89h-6.12v18.5H15.83ZM67.97,410.43c-36.15,0-54.88-14.99-54.88-42.98,0-24.68,14.58-41.09,39.82-41.09,9.24,0,16.36,2.13,21.22,6.26h.47l.95-4.37h25.96v43.21h-38.16v-12.4c-.95-.59-2.13-.83-3.44-.83-3.91,0-6.28,2.36-6.28,7.67,0,8.38,5.93,11.92,18.84,11.92,8.89,0,18.37-1.65,26.91-4.72l4.15,31.05c-9.48,4.13-21.93,6.26-35.56,6.26ZM207.12,358.24h-4.74v20.31h4.74v29.99h-47.88v-26.45h4.98v-6.49h-14.7v6.49h4.98v26.45h-47.88v-29.99h4.74v-20.31h-4.74v-29.99h47.88v26.45h-4.98v6.49h14.7v-6.49h-4.98v-26.45h47.88v29.99ZM302.89,408.54h-90.79v-29.99h4.74v-20.31h-4.74v-29.99h89.6v37.19h-34.61v-10.74h-12.09v6.49h7.35v14.4h-7.35v6.49h12.09v-10.74h35.79v37.19ZM393.44,359.66h-35.79v-4.96h-7.11v8.97h28.68v14.4h-28.68v4.01h10.31v26.45h-53.22v-29.99h4.74v-20.31h-4.74v-29.99h85.81v31.41ZM419.05,410.43c-12.8,0-20.74-6.61-20.74-17.47s7.94-17.47,20.74-17.47,20.74,6.61,20.74,17.47-7.94,17.47-20.74,17.47ZM436.23,374.77c-4.74-2.48-11.14-3.66-17.19-3.66s-12.45,1.18-17.19,3.66l-6.16-46.52h46.7l-6.16,46.52ZM386.71,204.94c-43.8,0-68.4-22.33-68.4-62.12s24.6-62.12,68.4-62.12,68.4,22.33,68.4,62.12-24.6,62.12-68.4,62.12Z"/>
  <path class="st0" d="M386.71,128.86c-5.93,0-8.72,4.54-8.72,13.96s2.79,13.96,8.72,13.96,8.72-4.54,8.72-13.96-2.79-13.96-8.72-13.96Z"/>
  <polygon class="st0" points="240.31 111.94 239.62 111.94 234.03 135.84 245.9 135.84 240.31 111.94"/>
  <path class="st0" d="M492.13,116.45c.27-.39.4-.87.4-1.45,0-.33-.06-.65-.17-.96-.11-.31-.3-.58-.56-.82-.26-.24-.58-.43-.97-.57-.39-.14-.86-.22-1.42-.22h-2.41c-.31,0-.56.09-.74.28-.19.19-.28.43-.28.74v6.3c0,.31.09.56.28.74.19.19.44.28.77.28.31,0,.56-.09.74-.28.19-.19.28-.43.28-.74v-2.04h.96l1.54,2.5c.1.17.23.3.39.4s.32.15.51.15c.31,0,.56-.09.74-.26.18-.17.28-.41.28-.69,0-.12-.03-.24-.08-.34-.05-.1-.1-.2-.14-.28l-1.2-1.85c.45-.21.81-.5,1.08-.9ZM490.06,115.79c-.23.13-.59.2-1.08.2h-.93v-1.82h1.08c.39,0,.7.07.93.2.23.13.34.36.34.66,0,.37-.11.62-.34.76Z"/>
  <path class="st0" d="M496.71,113.44c-.42-.98-1-1.84-1.74-2.58-.74-.74-1.6-1.32-2.58-1.74-.98-.42-2.02-.63-3.13-.63s-2.16.22-3.13.65c-.98.43-1.84,1.01-2.58,1.74-.74.73-1.32,1.58-1.74,2.56-.42.98-.63,2.02-.63,3.13s.22,2.16.65,3.13c.43.98,1.01,1.84,1.74,2.58.73.74,1.58,1.32,2.56,1.74s2.02.63,3.13.63,2.16-.22,3.13-.65c.98-.43,1.84-1.01,2.58-1.74.74-.73,1.32-1.58,1.74-2.56.42-.98.63-2.02.63-3.13s-.21-2.16-.63-3.13ZM494.58,118.81c-.3.71-.71,1.32-1.23,1.84s-1.14.93-1.84,1.23c-.7.31-1.45.46-2.25.46s-1.53-.15-2.24-.46c-.71-.31-1.32-.72-1.84-1.23-.51-.51-.93-1.13-1.23-1.84-.31-.71-.46-1.46-.46-2.24s.15-1.55.46-2.25c.31-.7.72-1.31,1.23-1.84.51-.53,1.13-.94,1.84-1.23.71-.3,1.46-.45,2.24-.45s1.55.15,2.25.45c.7.3,1.31.71,1.84,1.23.52.52.94,1.14,1.23,1.84.3.7.45,1.45.45,2.25s-.15,1.53-.45,2.24Z"/>
</svg>