<?xml version="1.0" encoding="UTF-8"?>
<svg id="Camada_1" xmlns="http://www.w3.org/2000/svg" version="1.1" viewBox="0 0 198 186">
  <!-- Generator: Adobe Illustrator 29.3.1, SVG Export Plug-In . SVG Version: 2.1.0 Build 151)  -->
  <defs>
    <style>
      .st0 {
        fill: #ea1d2c;
      }

      .st1 {
        fill: #3e3e3e;
      }
    </style>
  </defs>
  <g>
    <path class="st0" d="M29,61.5c0,7-5.6,12.8-12.7,12.8-2.4,0-4.8-.7-6.5-2.7v11.2c0,.6-.4,1-1,1H3.9c-.6,0-1-.4-1-1v-32.9c0-.6.4-1,1-1h4.9c.6,0,1,.4,1,1v1.7c1.3-1.7,4-2.7,6.3-2.7,7,0,12.8,5.6,12.8,12.7ZM22.5,61.5c0-1.7-.6-3.3-1.8-4.5-1.2-1.1-2.8-1.8-4.5-1.8s-3.3.6-4.5,1.8c-1.2,1.2-1.8,2.8-1.8,4.5,0,1.7.7,3.3,1.9,4.5s2.8,1.8,4.5,1.8c1.7,0,3.3-.7,4.5-1.9,1.2-1.2,1.8-2.8,1.8-4.5Z"/>
    <path class="st0" d="M56.1,49.7v23.6c0,.6-.4,1-1,1h-4.9c-.6,0-1-.4-1-1v-1.9c-1.5,2-4.1,2.8-6.4,2.8-7,0-12.8-5.6-12.8-12.7s5.6-12.8,12.7-12.8c2.4,0,5,.9,6.6,2.8v-1.8c0-.6.4-1,1-1h4.9c.6,0,1,.4,1,1ZM48.9,61.4c0-1.7-.6-3.3-1.9-4.5-1.2-1.2-2.8-1.8-4.4-1.8-1.7,0-3.3.6-4.5,1.8s-1.8,2.8-1.8,4.5.7,3.3,1.9,4.5,2.8,1.8,4.5,1.8c1.7,0,3.3-.7,4.4-1.9,1.2-1.2,1.8-2.8,1.8-4.5Z"/>
    <path class="st0" d="M64,73.5c-1.1-.4-2.1-1-3.2-2-1.8-1.7-2.5-2.9-2.6-5.2,0,0,0-.5,0-.9s.5-1,1-1h4.1c.5,0,.9.4,1,.9s.2,1.2.5,1.6c.6,1,1.9,1.4,3.7,1.4s2.7-.1,3.4-.5c.8-.4.9-.9.9-1.2,0-1.6-2.9-2.1-4.5-2.3-1.9-.2-3.6-.6-4.9-1.2-1.3-.5-2.4-1.3-3.3-2.2-1.2-1.3-1.8-2.9-1.8-4.6s.9-4,1.8-4.9c1.8-2,4.6-3.1,8.6-3.1s7.7,2.3,9,4.2c.9,1.3,1.2,3.1,1.3,4.2s-.4,1.1-1,1.1h-4c-.5,0-.9-.4-1-.8s-.2-.9-.4-1.2c-.7-.9-2.1-1.5-3.9-1.5s-4.2.5-4.2,1.7.3,1,1,1.4c.7.4,1.9.7,3.5.9,3.8.4,6.6,1.6,8.3,3.6,1.1,1.3,1.7,2.9,1.7,4.6s0,2.9-1.7,4.8c-.8,1-2,1.7-3.5,2.2-1.5.5-3.2.7-5.3.7s-3.2-.2-4.5-.8Z"/>
    <path class="st0" d="M87.6,73.5c-1.1-.4-2.1-1-3.2-2-1.8-1.7-2.5-2.9-2.6-5.2,0,0,0-.5,0-.9s.5-1,1-1h4.1c.5,0,.9.4,1,.9s.2,1.2.5,1.6c.6,1,1.9,1.4,3.7,1.4s2.7-.1,3.4-.5c.8-.4.9-.9.9-1.2,0-1.6-2.9-2.1-4.5-2.3-1.9-.2-3.6-.6-4.9-1.2-1.3-.5-2.4-1.3-3.3-2.2-1.2-1.3-1.8-2.9-1.8-4.6s.9-4,1.8-4.9c1.8-2,4.6-3.1,8.6-3.1s7.7,2.3,9,4.2c.9,1.3,1.2,3.1,1.3,4.2s-.4,1.1-1,1.1h-4c-.5,0-.9-.4-1-.8s-.2-.9-.4-1.2c-.7-.9-2.1-1.5-3.9-1.5s-4.2.5-4.2,1.7.3,1,1,1.4c.7.4,1.9.7,3.5.9,3.8.4,6.6,1.6,8.3,3.6,1.1,1.3,1.7,2.9,1.7,4.6s0,2.9-1.7,4.8c-.8,1-2,1.7-3.5,2.2-1.5.5-3.2.7-5.3.7s-3.2-.2-4.5-.8Z"/>
    <path class="st0" d="M131.6,61.5c0,7-5.6,12.8-12.7,12.8-2.4,0-4.8-.7-6.5-2.7v11.2c0,.6-.4,1-1,1h-4.9c-.6,0-1-.4-1-1v-32.9c0-.6.4-1,1-1h4.9c.6,0,1,.4,1,1v1.7c1.3-1.7,4-2.7,6.3-2.7,7,0,12.8,5.6,12.8,12.7ZM125.1,61.5c0-1.7-.6-3.3-1.8-4.5-1.2-1.1-2.8-1.8-4.5-1.8s-3.3.6-4.5,1.8c-1.2,1.2-1.8,2.8-1.8,4.5,0,1.7.7,3.3,1.9,4.5,1.2,1.2,2.8,1.8,4.5,1.8,1.7,0,3.3-.7,4.5-1.9,1.2-1.2,1.8-2.8,1.8-4.5Z"/>
    <path class="st0" d="M158.4,61.5c0,7-5.6,12.8-12.6,12.8-7.1,0-12.8-5.6-12.8-12.7,0-7,5.6-12.8,12.7-12.8,7,0,12.8,5.6,12.8,12.7ZM152,61.5c0-1.7-.7-3.3-1.9-4.5-1.2-1.1-2.8-1.8-4.5-1.8s-3.2.6-4.4,1.8c-1.2,1.2-1.8,2.8-1.8,4.5s.7,3.3,1.9,4.5c1.2,1.2,2.8,1.8,4.5,1.8,1.7,0,3.3-.7,4.4-1.9,1.2-1.2,1.8-2.8,1.8-4.5Z"/>
    <path class="st0" d="M175.9,49.4v5.1c0,.5-.4.9-.9,1-4.8.4-7.7,4.4-7.7,7.5v10.3c0,.6-.4,1-1,1h-4.9c-.6,0-1-.4-1-1v-23.5c0-.6.4-1,1-1h4.9c.6,0,1,.4,1,1v2.8c1.1-2.9,3.1-4.1,7.6-4.2s1,.4,1,1Z"/>
    <path class="st0" d="M195.5,55.8h-4.7v17.5c0,.6-.4,1-1,1h-4.9c-.6,0-1-.4-1-1v-17.5h-4.7c-.6,0-1-.4-1-1v-4.9c0-.6.4-1,1-1h4.7v-7.9c0-.6.4-1,1-1h4.9c.6,0,1,.4,1,1v7.9h4.7c.6,0,1,.4,1,1v4.9c0,.6-.4,1-1,1Z"/>
  </g>
  <g>
    <path class="st0" d="M26.7,87.8c.6,0,1,.4,1,1v24.9c0,7.1-5.8,12.9-13,12.9-6.3,0-11.6-4.3-12.9-10.1s.3-1.2,1-1.2h4.8c.4,0,.8.2.9.6.3.9.8,1.7,1.5,2.3,1.2,1.2,2.9,1.9,4.6,1.9s3.4-.7,4.5-1.9c1.2-1.2,1.9-2.8,1.9-4.5v-2.6c-1.6,1.6-4.1,2.6-6.4,2.6-7.3,0-13.2-5.7-13.2-12.9,0-7.1,5.8-13,13-13,2.3,0,4.9.7,6.5,2.7v-1.7c0-.6.4-1,1-1h4.7ZM21.1,100.1c-.2-1.5-.8-2.8-1.9-3.8-1.2-1.2-2.9-1.8-4.6-1.8s-3.3.7-4.5,1.9c-1.2,1.3-1.9,2.8-1.9,4.5s.7,3.3,1.9,4.5c1.2,1.2,2.9,1.9,4.6,1.9,1.7,0,3.4-.7,4.5-1.9,1-1,1.7-2.3,1.8-3.7v-1.5Z"/>
    <path class="st0" d="M56,100.8c0,7.1-5.8,13-13,13-7.3,0-13.2-5.7-13.2-12.9,0-7.1,5.8-13,13-13,7.2,0,13.1,5.7,13.1,12.9ZM49.4,100.8c0-1.7-.7-3.3-1.9-4.5-1.2-1.2-2.9-1.8-4.6-1.8s-3.3.7-4.5,1.9c-1.2,1.3-1.9,2.8-1.9,4.5s.7,3.3,1.9,4.5c1.2,1.2,2.9,1.9,4.6,1.9,1.7,0,3.4-.7,4.5-1.9,1.2-1.2,1.9-2.8,1.9-4.5Z"/>
    <path class="st0" d="M59.1,87.8h4.6c.6,0,1,.4,1,1v12h0c0,1.8,1.2,6.4,6,6.4s6-4.7,6-6.4h0v-12c0-.6.4-1,1-1h5.1c.6,0,1,.4,1,1v24c0,.6-.4,1-1,1h-5.1c-.6,0-1-.4-1-1v-1.7c-1.9,2.1-4.1,2.7-6.4,2.7-6.7,0-12.1-5.4-12.1-12.4v-12.6c0-.6.4-1,1-1Z"/>
    <path class="st0" d="M102.8,88.5v5.2c0,.5-.4.9-.9,1-5,.4-8,4.5-8,7.7v10.5c0,.6-.4,1-1,1h-5.1c-.6,0-1-.4-1-1v-23.9c0-.6.4-1,1-1h5.1c.6,0,1,.4,1,1v2.9c1.1-3,3.2-4.2,7.8-4.3s1,.4,1,1Z"/>
    <path class="st0" d="M149.3,100.3v12.5c0,.6-.4,1-1,1h-4.6c-.6,0-1-.4-1-1v-12.1c0-1.7-1.2-6.3-6-6.3s-5.9,4.7-5.9,6.4h0v13h-5.7c-.6,0-1-.4-1-1v-12.1c0-1.7-1.2-6.3-6-6.3s-6,4.7-6,6.4h0v12c0,.6-.4,1-1,1h-5.1c-.6,0-1-.4-1-1v-24c0-.6.4-1,1-1h5.1c.6,0,1,.4,1,1v1.7c2-2.1,4.1-2.7,6.4-2.7,3.8,0,7.1,1.7,9.3,4.4l2.1-2c2.4-1.9,4.8-2.4,7.1-2.4,6.8,0,12.2,4.2,12.2,12.4Z"/>
    <path class="st0" d="M176.6,103.2h-18.2c.4,1,.7,1.4,1.5,2.2,1.3,1.2,2.9,1.9,4.6,1.9,1.6,0,3.2-.6,4.4-1.7l1-.2,4.8,1.5c.7.2.9,1,.5,1.6-2.5,3.5-5.4,5.4-10.6,5.4-7.2,0-13.1-5.7-13.2-12.9,0-7.1,5.8-13,13-13,7.2,0,13.1,5.7,13.2,12.9,0,.2,0,.9,0,1.5s-.4,1-1,1ZM159.9,96.3c-.6.6-1.1,1.3-1.4,2.1h12c-.3-.8-.8-1.5-1.4-2.2-1.2-1.2-2.9-1.8-4.6-1.8s-3.4.7-4.6,1.9Z"/>
    <path class="st0" d="M195.8,94.9h-4.9v17.9c0,.6-.4,1-1,1h-5.1c-.6,0-1-.4-1-1v-17.9h-4.9c-.6,0-1-.4-1-1v-5c0-.6.4-1,1-1h4.9v-8.1c0-.6.4-1,1-1h5.1c.6,0,1,.4,1,1v8.1h4.9c.6,0,1,.4,1,1v5c0,.6-.4,1-1,1Z"/>
  </g>
  <g>
    <path class="st1" d="M66.5,142c0,4.9-4,8.9-9,8.9s-9-4-9-8.9,4-8.9,9-8.9,9,4,9,8.9ZM62.7,142c0-1.4-.5-2.7-1.5-3.7-1-1-2.3-1.5-3.7-1.5s-2.7.5-3.7,1.5c-1,1-1.5,2.3-1.5,3.7s.5,2.7,1.5,3.7c1,1,2.3,1.5,3.7,1.5s2.7-.6,3.7-1.5c1-1,1.5-2.3,1.5-3.7Z"/>
    <path class="st1" d="M76.1,136.4v3.8c-2.9,0-4.7,2.3-4.7,4.1v6.1h-3.8v-13.7h3.8v2.1c.6-1.7,1.9-2.3,4.7-2.3Z"/>
    <path class="st1" d="M81.1,150.3h-3.8v-18.5h3.8v18.5Z"/>
    <path class="st1" d="M96.5,136.6v13.8h-3.8v-1.5c-.8,1.1-2.2,1.5-3.5,1.5-3.8,0-7-3-7-6.8,0-3.8,3.1-6.9,6.9-6.9,1.3,0,2.7.5,3.6,1.5v-1.5h3.8ZM92.6,143.4c0-.9-.4-1.8-1-2.4-.6-.6-1.5-1-2.4-1-.9,0-1.8.3-2.4,1-.6.6-1,1.5-1,2.4s.4,1.8,1,2.4c.6.6,1.5,1,2.4,1,.9,0,1.8-.4,2.4-1,.6-.6,1-1.5,1-2.4Z"/>
    <path class="st1" d="M112,143.5v6.8h-3.5v-6.8h0c0-1-.4-1.8-1-2.5s-1.5-1-2.4-1c-.9,0-1.8.4-2.4,1-.6.6-1,1.5-1,2.4h0s0,0,0,0v6.8h-3.8v-13.8h3.8v1.8c1.1-1.3,2.2-1.6,3.4-1.7,3.8-.3,7,2.1,7,6.8Z"/>
    <path class="st1" d="M124.2,150.3v-1.6c-1.2,1-2.7,1.6-4.4,1.6-3.8,0-7-3-7-6.8,0-3.8,3.1-6.9,6.9-6.9,1.7,0,3.2.6,4.4,1.6v-6.4h3.8v18.6s-3.7,0-3.7,0ZM123.2,143.5c0-.9-.4-1.8-1-2.4-.6-.6-1.5-1-2.4-1s-1.8.3-2.4,1c-.6.7-1,1.5-1,2.4,0,.9.4,1.8,1,2.4.6.6,1.5,1,2.4,1,.9,0,1.8-.4,2.4-1,.6-.6,1-1.5,1-2.4Z"/>
    <path class="st1" d="M142.9,143.4c0,3.8-3,6.9-6.9,6.9-3.9,0-7-3-7-6.8,0-3.8,3-6.9,6.9-6.9,3.8,0,7,3,7,6.8ZM139.4,143.5c0-.9-.4-1.8-1-2.4-.6-.6-1.5-1-2.4-1s-1.8.3-2.4,1c-.6.7-1,1.5-1,2.4s.4,1.8,1,2.4c.6.6,1.5,1,2.4,1,.9,0,1.8-.4,2.4-1,.6-.6,1-1.5,1-2.4Z"/>
  </g>
</svg>