<?xml version="1.0" encoding="UTF-8"?>
<svg id="Camada_1" xmlns="http://www.w3.org/2000/svg" version="1.1" viewBox="0 0 198 186">
  <!-- Generator: Adobe Illustrator 29.2.1, SVG Export Plug-In . SVG Version: 2.1.0 Build 116)  -->
  <defs>
    <style>
      .st0 {
        fill: #0f0f1a;
      }
    </style>
  </defs>
  <g>
    <path class="st0" d="M31.7,19.79c.25-.25.56-.38.93-.38h9.91c.36,0,.67.13.93.38.25.26.38.56.38.93v73.61c0,.36-.13.67-.38.93s-.56.38-.93.38h-11.43c-.73,0-1.2-.36-1.42-1.09L13.46,48.37c-.07-.22-.2-.31-.38-.27-.18.04-.27.16-.27.38l.11,45.84c0,.36-.13.67-.38.93-.26.26-.56.38-.93.38H1.7c-.37,0-.67-.13-.93-.38-.26-.25-.38-.56-.38-.93V20.71c0-.36.13-.67.38-.93s.56-.38.93-.38h11.22c.73,0,1.2.36,1.42,1.09l16.33,45.84c.07.22.2.31.38.27.18-.04.27-.16.27-.38V20.71c0-.36.12-.67.38-.93Z"/>
    <path class="st0" d="M85.11,94.43l-2.07-11.43c0-.36-.22-.54-.65-.54h-15.9c-.44,0-.65.18-.65.54l-2.07,11.43c-.07.8-.55,1.2-1.42,1.2h-9.91c-1.02,0-1.42-.47-1.2-1.42l16.12-73.61c.15-.8.62-1.2,1.42-1.2h11.54c.8,0,1.27.4,1.42,1.2l16.12,73.61v.44c0,.65-.4.98-1.2.98h-10.13c-.87,0-1.34-.4-1.42-1.2ZM76.71,12.08c-.87-.33-1.92-.85-3.16-1.58-.51-.29-1.05-.62-1.63-.98-.58-.36-1.09-.63-1.52-.82-.44-.18-.94-.27-1.52-.27-1.67,0-3.05.84-4.14,2.5-.51.73-1.13.87-1.85.43l-3.48-2.5c-.65-.44-.84-1.02-.55-1.74,1.02-2.32,2.3-4.05,3.87-5.17,1.56-1.12,3.29-1.69,5.17-1.69,1.16,0,2.25.22,3.27.65,1.02.43,2.18,1.05,3.48,1.85.29.15.73.42,1.31.82.58.4,1.14.71,1.69.93.54.22,1.11.33,1.69.33,1.74,0,3.12-.8,4.14-2.4.44-.87,1.02-1.05,1.74-.55l3.49,2.4c.36.22.55.58.55,1.09,0,.44-.15.91-.44,1.42-1.23,2.03-2.71,3.5-4.41,4.41-1.71.91-3.36,1.36-4.95,1.36-.94,0-1.85-.16-2.72-.49ZM68.34,72.55h12.09c.44,0,.62-.18.54-.54l-6.32-34.41c-.07-.22-.18-.33-.33-.33s-.26.11-.33.33l-6.21,34.41c-.07.36.11.54.55.54Z"/>
    <path class="st0" d="M107.93,90.84c-3.81-3.77-5.72-8.78-5.72-15.03v-36.59c0-6.24,1.9-11.25,5.72-15.03,3.81-3.77,8.84-5.66,15.08-5.66s11.29,1.89,15.14,5.66c3.85,3.77,5.77,8.78,5.77,15.03v36.59c0,6.24-1.93,11.25-5.77,15.03-3.85,3.78-8.89,5.66-15.14,5.66s-11.27-1.89-15.08-5.66ZM129,83.06c1.52-1.7,2.29-3.94,2.29-6.7v-37.68c0-2.76-.76-4.99-2.29-6.7-1.52-1.7-3.52-2.56-5.99-2.56s-4.45.85-5.94,2.56c-1.49,1.71-2.23,3.94-2.23,6.7v37.68c0,2.76.74,4.99,2.23,6.7,1.49,1.71,3.47,2.56,5.94,2.56s4.46-.85,5.99-2.56Z"/>
  </g>
  <g>
    <path class="st0" d="M6.28,179.85c-3.93-3.92-5.89-9.13-5.89-15.6v-38.99c0-6.55,1.96-11.76,5.89-15.6,3.92-3.85,9.13-5.77,15.6-5.77s11.81,1.93,15.78,5.77c3.96,3.85,5.94,9.05,5.94,15.6v1.37c0,.38-.13.73-.4,1.03-.27.31-.59.46-.97.46l-10.63.46c-.91,0-1.37-.46-1.37-1.37v-2.86c0-2.67-.76-4.84-2.29-6.52-1.53-1.68-3.55-2.51-6.06-2.51s-4.42.84-5.94,2.51c-1.53,1.68-2.29,3.85-2.29,6.52v40.93c0,2.67.76,4.84,2.29,6.52,1.52,1.68,3.5,2.51,5.94,2.51s4.53-.84,6.06-2.51c1.52-1.68,2.29-3.85,2.29-6.52v-2.86c0-.38.13-.7.4-.97.27-.27.59-.4.97-.4l10.63.46c.38,0,.7.13.97.4.27.27.4.59.4.97v1.37c0,6.48-1.98,11.68-5.94,15.6-3.96,3.93-9.22,5.89-15.78,5.89s-11.68-1.96-15.6-5.89Z"/>
    <path class="st0" d="M83.34,105.19c.27-.27.59-.4.97-.4h10.52c.38,0,.7.13.97.4.27.27.4.59.4.97v77.28c0,.38-.13.71-.4.97s-.59.4-.97.4h-10.52c-.38,0-.71-.13-.97-.4-.27-.27-.4-.59-.4-.97v-32.35c0-.38-.19-.57-.57-.57h-14.52c-.38,0-.57.19-.57.57v32.35c0,.38-.13.71-.4.97s-.59.4-.97.4h-10.52c-.38,0-.71-.13-.97-.4-.27-.27-.4-.59-.4-.97v-77.28c0-.38.13-.7.4-.97s.59-.4.97-.4h10.52c.38,0,.7.13.97.4.27.27.4.59.4.97v32.24c0,.38.19.57.57.57h14.52c.38,0,.57-.19.57-.57v-32.24c0-.38.13-.7.4-.97Z"/>
    <path class="st0" d="M147.59,115.83c-.27.27-.59.4-.97.4h-24.69c-.38,0-.57.19-.57.57v21.61c0,.38.19.57.57.57h14.63c.38,0,.7.13.97.4.27.27.4.59.4.97v8.8c0,.38-.13.71-.4.97s-.59.4-.97.4h-14.63c-.38,0-.57.19-.57.57v21.72c0,.38.19.57.57.57h24.69c.38,0,.71.13.97.4.27.27.4.59.4.97v8.69c0,.38-.13.71-.4.97-.27.27-.59.4-.97.4h-37.15c-.38,0-.71-.13-.97-.4-.27-.27-.4-.59-.4-.97v-77.28c0-.38.13-.7.4-.97s.59-.4.97-.4h37.15c.38,0,.71.13.97.4s.4.59.4.97v8.69c0,.38-.13.71-.4.97Z"/>
    <path class="st0" d="M197.21,115.83c-.27.27-.59.4-.97.4h-24.58c-.38,0-.57.19-.57.57v21.61c0,.38.19.57.57.57h14.52c.38,0,.7.13.97.4.27.27.4.59.4.97v8.8c0,.38-.14.71-.4.97s-.59.4-.97.4h-14.52c-.38,0-.57.19-.57.57v32.35c0,.38-.13.71-.4.97s-.59.4-.97.4h-10.52c-.38,0-.71-.13-.97-.4-.27-.27-.4-.59-.4-.97v-77.28c0-.38.13-.7.4-.97s.59-.4.97-.4h37.04c.38,0,.7.13.97.4.27.27.4.59.4.97v8.69c0,.38-.13.71-.4.97Z"/>
  </g>
  <g>
    <g>
      <path class="st0" d="M164.44,82.1c.13.13.2.29.2.48v3.48c0,.19.09.28.28.28h14.73c1.31,0,2.22-.24,2.73-.73.51-.49.74-1.22.7-2.19v-.39c0-.19.07-.35.2-.48.13-.13.29-.2.48-.2h4.33c.19,0,.35.07.48.2.13.13.2.29.2.48v1.91c0,2.55-.47,4.47-1.41,5.76-.94,1.29-2.7,1.94-5.28,1.94h-17.15c-.19,0-.28.09-.28.28v1.97c0,.19-.06.35-.2.48-.13.13-.29.2-.48.2h-3.26c-.19,0-.35-.06-.48-.2-.13-.13-.2-.29-.2-.48v-1.97c0-.19-.09-.28-.28-.28h-6.18c-.19,0-.35-.06-.48-.2-.13-.13-.2-.29-.2-.48v-4.95c0-.19.07-.35.2-.48s.29-.2.48-.2h6.18c.19,0,.28-.09.28-.28v-3.48c0-.19.07-.35.2-.48.13-.13.29-.2.48-.2h3.26c.19,0,.35.07.48.2Z"/>
      <path class="st0" d="M176.59,58.83c.13.13.2.29.2.48v12.42c0,.19.09.28.28.28h2.53c1.16,0,2.12-.32,2.87-.96.75-.64,1.12-1.46,1.12-2.47,0-.86-.27-1.6-.82-2.22-.54-.62-1.25-1.02-2.11-1.21-.37-.11-.56-.36-.56-.73l.23-5c0-.19.07-.35.2-.48.13-.13.31-.18.53-.14,2.62.26,4.64,1.22,6.04,2.87,1.41,1.65,2.11,3.95,2.11,6.91s-.82,5.5-2.45,7.28c-1.63,1.78-3.85,2.67-6.66,2.67h-11.41c-2.74,0-4.94-.89-6.61-2.67-1.67-1.78-2.5-4.21-2.5-7.28s.83-5.5,2.5-7.28c1.67-1.78,3.87-2.67,6.61-2.67h7.42c.19,0,.35.07.48.2ZM166.33,71.06c.75.64,1.71.96,2.87.96h2.53c.19,0,.28-.09.28-.28v-6.35c0-.19-.09-.28-.28-.28h-2.53c-1.2,0-2.16.32-2.9.96s-1.1,1.48-1.1,2.53.38,1.84,1.12,2.47Z"/>
      <path class="st0" d="M162.14,23.59c1.7-1.26,4.07-1.88,7.11-1.88h18.83c.19,0,.35.07.48.2s.2.29.2.48v5.12c0,.19-.07.35-.2.48-.13.13-.29.2-.48.2h-18.38c-1.42,0-2.53.28-3.32.84-.79.56-1.18,1.33-1.18,2.31,0,1.05.39,1.87,1.18,2.47.79.6,1.87.9,3.26.9h18.44c.19,0,.35.07.48.2.13.13.2.29.2.48v5.12c0,.19-.07.35-.2.48-.13.13-.29.2-.48.2h-18.38c-1.42,0-2.53.29-3.32.87-.79.58-1.18,1.34-1.18,2.28,0,1.05.39,1.87,1.18,2.47.79.6,1.87.9,3.26.9h18.44c.19,0,.35.07.48.2.13.13.2.29.2.48v5.12c0,.19-.07.35-.2.48s-.29.2-.48.2h-27.38c-.19,0-.35-.07-.48-.2-.13-.13-.2-.29-.2-.48v-5.12c0-.19.07-.35.2-.48.13-.13.29-.2.48-.2h.9c.11,0,.19-.04.23-.11s0-.15-.11-.23c-.75-.75-1.29-1.59-1.63-2.53-.34-.94-.51-1.85-.51-2.75,0-2.77,1.18-4.81,3.54-6.13.15-.11.09-.28-.17-.51-1.2-.75-2.06-1.7-2.59-2.84-.52-1.14-.79-2.29-.79-3.46,0-2.44.85-4.28,2.56-5.54Z"/>
    </g>
    <rect class="st0" x="159.85" y="56.89" width="73.41" height="2.1" transform="translate(138.62 254.49) rotate(-90)"/>
  </g>
</svg>