<?xml version="1.0" encoding="UTF-8"?>
<svg id="Camada_1" xmlns="http://www.w3.org/2000/svg" version="1.1" viewBox="0 0 261.6 205.1">
  <!-- Generator: Adobe Illustrator 29.5.1, SVG Export Plug-In . SVG Version: 2.1.0 Build 141)  -->
  <defs>
    <style>
      .st0 {
        fill: #fff;
      }

      .st1 {
        fill: #f24957;
      }
    </style>
  </defs>
  <g>
    <path class="st1" d="M236,26c0,0-.1-.1-.2-.2-.3-.3-.6-.6-.9-.9,0,0-.1,0-.2-.1-.4-.3-.7-.6-1.1-.9,0,0,0,0,0,0-5.1-3.9-11.7-6.1-19.2-6.6h0c-.6,0-1.2,0-1.8,0h0c-.6,0-1.3,0-1.9,0-12.5,0-23,4.1-28.7,12.9h-.1c.5-.7,1-1.4,1.4-2.1l-7.2-11.5-13.6-13.6c-3.3,4.1-4.5,4.8-7.4,4.8s-2.6-.2-4.2-.6c-2.7-.7-5.4-.9-8.2-.9-6.7,0-11.4,3.1-15.9,9.6l1.7,2.6H46.2v26.7l3,3v2.4h-3v26.7h0v26.4l12,11.9v10.1h0c0,.1,0,.2,0,.2-7.9,2.7-12.4,9.9-12.4,19.2s0,.7,0,1c0,0,0,.2,0,.3,0,.3,0,.6,0,.9,0,.2,0,.3,0,.5,0,.1,0,.3,0,.4.5,4.9,2.4,8.5,5.2,11.3l9.3,9.2c5.1,5.1,13.1,6.7,21,6.7s9-.5,13.2-1.8l.9.9h111.4l8.3,7.8-8.1.2,20,22.7-2.2-13.7h0s-.1-.9-.1-.9l-1.3-8.5h0s-1.2-7.5-1.2-7.5h11.4,0c5.3-.3,10.8-3.2,10.8-10.1s-.7-4.4-1.8-5.9l2.8-20.8h4.8v-23.4l-2.7-2.6v-2.1h2.7v-23.4l-1.9-1.8c5.7-5,9.2-12.6,9.2-22.9h0c0-9.6-3-16.8-7.9-21.8l-13.6-13.6Z"/>
    <path class="st1" d="M257.1,36.3c.1-.2.2-.4.2-.6s0-.3,0-.4c0-.1-.1-.3-.2-.4-.1-.1-.2-.2-.4-.2-.2,0-.4,0-.6,0h-1c-.1,0-.2,0-.3.1,0,0-.1.2-.1.3v2.7c0,.1,0,.2.1.3h0c0,0,.2.1.3.1s.2,0,.3-.1c0,0,.1-.2.1-.3v-.9h.4l.7,1.1c0,0,0,.1.2.2,0,0,.1,0,.2,0,.1,0,.2,0,.3-.1,0,0,.1-.2.1-.3s0-.1,0-.1c0,0,0,0,0-.1l-.5-.8c.2,0,.4-.2.5-.4ZM256.2,36c0,0-.3,0-.5,0h0s-.4,0-.4,0v-.8h.5c.2,0,.3,0,.4,0,0,0,.1.2.1.3s0,.3-.1.3Z"/>
    <path class="st1" d="M259.1,35c-.2-.4-.4-.8-.8-1.1-.3-.3-.7-.6-1.1-.8-.4-.2-.9-.3-1.4-.3s-.9,0-1.4.3c-.4.2-.8.4-1.1.8-.3.3-.6.7-.8,1.1-.2.4-.3.9-.3,1.4s0,.9.3,1.4c.2.4.4.8.8,1.1.3.3.7.6,1.1.8h0c.4.2.9.3,1.4.3s.9,0,1.4-.3c.4-.2.8-.4,1.1-.8.3-.3.6-.7.8-1.1.2-.4.3-.9.3-1.4s0-.9-.3-1.4ZM258.2,37.4c-.1.3-.3.6-.5.8-.2.2-.5.4-.8.5-.3.1-.6.2-1,.2s-.7,0-1-.2c-.3-.1-.6-.3-.8-.5-.2-.2-.4-.5-.5-.8-.1-.3-.2-.6-.2-1s0-.7.2-1c.1-.3.3-.6.5-.8.2-.2.5-.4.8-.5.3-.1.6-.2,1-.2s.7,0,1,.2c.3.1.6.3.8.5.2.2.4.5.5.8.1.3.2.6.2,1s0,.7-.2,1Z"/>
  </g>
  <g>
    <path class="st0" d="M20.8,148.8c-1.1,2.6-2.2,4.8-3.1,6.5,1.2.5,2.1,1.2,2.7,2.2.6,1,.8,2.4.8,4.1s-.5,3.7-1.5,4.8c-1.1,1-2.4,1.5-4,1.5s-2.8-.5-3.8-1.5c-1.1-1-1.6-2.4-1.6-4.4s.3-2.6.8-3.9c.6-1.3,1.4-2.2,2.6-2.8-1.3-2.5-2.2-4.7-2.9-6.5-4.5,2.2-6.7,6.6-6.7,13.1s1.1,8.1,3.2,10.3c2.1,2.2,5.1,3.3,8.7,3.3s6.5-1.1,8.5-3.3c2-2.2,3-5.6,3-10.3s-.5-5.5-1.5-7.9c-1-2.4-2.7-4.1-5.2-5.2Z"/>
    <path class="st0" d="M4.8,139.4c4-.2,7.7-.2,11.2-.2s7.2,0,11.2.2v-21.8c-1.4,0-2.6,0-3.5,0-1,0-2-.2-3-.5.2,3.9.3,8.9.3,14.8H4.8v7.5Z"/>
    <path class="st0" d="M24.7,107.9c1.9-1.8,2.8-5.1,2.8-10s-1-8.2-3-10.2c-2-2-4.5-3.1-7.5-3.1H4.8v7.7h11.7c1,0,1.8,0,2.4.2.6.1,1.2.6,1.7,1.5.5.8.7,2.1.7,3.9s-.2,2.8-.7,3.6c-.5.7-1,1.2-1.6,1.3-.6.1-1.3.2-2.2.2H4.8v7.7h12.5c3.1,0,5.5-.8,7.4-2.6Z"/>
    <path class="st0" d="M27.2,75.1v-13.9c0-2.9-.3-5.2-.8-6.9-.6-1.6-1.3-2.8-2.3-3.4-1-.6-2.2-1-3.6-1-3,0-4.5,2.3-4.5,7-.6-2.1-1.4-3.6-2.3-4.5-1-.9-2.1-1.3-3.4-1.3s-2.3.3-3.1.9c-.8.6-1.4,1.6-1.8,3.1-.4,1.5-.6,3.5-.6,6v6.6h0v7.3c4-.2,7.7-.2,11.2-.2s7.2,0,11.2.2ZM18.5,61.9c0-1.5.1-2.6.4-3.2.2-.6.6-.9,1.1-.9s.7.1,1,.4c.2.2.4.7.5,1.2,0,.6.1,1.4.1,2.4v5.9h-3.1v-5.9ZM13.3,67.8h-2.9v-5.9c0-1.2.1-2.1.3-2.6.2-.5.5-.8,1-.8s1,.3,1.2.8c.2.5.3,1.4.3,2.7v5.9Z"/>
    <path class="st0" d="M27.2,42.6v-24c-1.4,0-2.5,0-3.4,0-.9,0-1.8-.1-2.6-.3.2,3.5.3,9.2.3,17h-3.2c0-1,0-2.5,0-4.4,0-3.3,0-6.7.2-10.2h-5.3c.1,3.5.2,6.9.2,10.2s0,3.4,0,4.4h-3v-16.7h-5.6v24c4-.2,7.7-.2,11.2-.2s7.2,0,11.2.2Z"/>
  </g>
  <g>
    <polygon class="st0" points="76.9 56.5 73.8 56.5 73.8 40.2 74.1 40.2 83.7 73.4 113.1 73.4 113.1 41.3 116.1 41.3 116.1 22.1 92.2 22.1 92.2 43.2 91.9 43.2 86.2 22.1 50 22.1 50 41.3 53 41.3 53 54.2 50 54.2 50 73.4 76.9 73.4 76.9 56.5"/>
    <path class="st0" d="M147.7,56.5h-5.1l.6-3.9h7.5v20.8h28.5v-19.2h-3l-8.9-32.2h-47.8v19.2h4.2l-3.6,13h-3v19.2h30.7v-16.9ZM146.7,34.4h.3l2.4,10.3h-5.1l2.4-10.3Z"/>
    <path class="st0" d="M141.3,18.6c2,0,3.3.3,5,.7,1.9.5,3.9.8,7.3.8s8.2-2,11.3-6l-3.3-5.2c-1.7,1.7-3.9,2.5-6.7,2.5s-3.3-.3-5-.7c-1.9-.5-3.9-.8-7.3-.8s-8.2,2-11.3,6l3.3,5.2c1.7-1.7,3.9-2.5,6.7-2.5Z"/>
    <polygon class="st0" points="64.7 92.1 67.4 92.1 67.4 105.5 61.6 105.5 61.6 122.3 94.5 122.3 94.5 105.5 88.7 105.5 88.7 92.1 91.4 92.1 91.4 100.1 106.4 100.1 106.4 77.3 49.7 77.3 49.7 100.1 64.7 100.1 64.7 92.1"/>
    <polygon class="st0" points="108.8 105.5 108.8 122.3 159.6 122.3 159.6 101.4 139.5 101.4 139.5 107.5 132.8 107.5 132.8 103.8 136.9 103.8 136.9 95.7 132.8 95.7 132.8 92.1 139.5 92.1 139.5 98.1 158.9 98.1 158.9 77.3 108.8 77.3 108.8 94.1 111.4 94.1 111.4 105.5 108.8 105.5"/>
    <polygon class="st0" points="234.3 94.1 234.3 77.3 200.5 77.3 197.8 88.7 197.6 88.7 194.9 77.3 162.2 77.3 162.2 94.1 164.9 94.1 164.9 105.5 162.2 105.5 162.2 122.3 185.8 122.3 185.8 107.5 183.1 107.5 183.1 91.1 183.4 91.1 191.2 122.3 202.9 122.3 210.7 91.1 211 91.1 211 107.5 208.3 107.5 208.3 122.3 234.3 122.3 234.3 105.5 231.7 105.5 231.7 94.1 234.3 94.1"/>
    <path class="st0" d="M74.2,149.4c-5.6,0-8.2-1.5-8.2-5.2s1-3.3,2.7-3.3,1.1.1,1.5.4v5.4h16.6v-18.7h-11.3l-.4,1.9h-.2c-2.1-1.8-5.2-2.7-9.2-2.7-11,0-17.3,7.1-17.3,17.8h0c0,12.1,8.1,18.6,23.8,18.6s11.3-.9,15.4-2.7l-1.8-13.4c-3.7,1.3-7.8,2-11.7,2Z"/>
    <polygon class="st0" points="111.9 139.4 114 139.4 114 142.2 107.7 142.2 107.7 139.4 109.8 139.4 109.8 128 89 128 89 140.9 91.1 140.9 91.1 149.7 89 149.7 89 162.7 109.8 162.7 109.8 151.3 107.7 151.3 107.7 148.5 114 148.5 114 151.3 111.9 151.3 111.9 162.7 132.6 162.7 132.6 149.7 130.6 149.7 130.6 140.9 132.6 140.9 132.6 128 111.9 128 111.9 139.4"/>
    <polygon class="st0" points="158.7 151.3 153.4 151.3 153.4 148.5 156.6 148.5 156.6 142.2 153.4 142.2 153.4 139.4 158.7 139.4 158.7 144.1 173.7 144.1 173.7 128 134.8 128 134.8 140.9 136.9 140.9 136.9 149.7 134.8 149.7 134.8 162.7 174.2 162.7 174.2 146.6 158.7 146.6 158.7 151.3"/>
    <polygon class="st0" points="176.2 140.9 178.3 140.9 178.3 149.7 176.2 149.7 176.2 162.7 199.3 162.7 199.3 151.3 194.8 151.3 194.8 149.5 207.3 149.5 207.3 143.3 194.8 143.3 194.8 139.4 197.9 139.4 197.9 141.6 213.5 141.6 213.5 128 176.2 128 176.2 140.9"/>
    <path class="st0" d="M224.6,148.4c-5.6,0-9,2.9-9,7.6s3.4,7.6,9,7.6,9-2.9,9-7.6-3.4-7.6-9-7.6Z"/>
    <path class="st0" d="M217.1,148.1c2.1-1.1,4.8-1.6,7.5-1.6s5.4.5,7.5,1.6l2.7-20.1h-20.3l2.7,20.1Z"/>
    <path class="st0" d="M210.5,74.6c19,0,29.7-9.7,29.7-26.9s-10.7-26.9-29.7-26.9-29.7,9.7-29.7,26.9,10.7,26.9,29.7,26.9ZM207,43.7l3.1-9.6,3.1,9.6h10.1l-8.2,5.9,3.1,9.6-8.2-5.9-8.2,5.9,3.1-9.6-8.2-5.9h10.1Z"/>
  </g>
</svg>