<svg width="253" height="243" viewBox="0 0 253 243" fill="none" xmlns="http://www.w3.org/2000/svg">
<g clip-path="url(#clip0_56_665)">
<path d="M250.883 72.617C250.883 61.2557 247.386 52.7569 241.464 46.8502L225.318 30.7449C225.253 30.6803 225.184 30.6238 225.119 30.5592C224.755 30.1999 224.378 29.8486 223.994 29.5054C223.933 29.4529 223.872 29.4005 223.812 29.348C223.383 28.9725 222.941 28.6132 222.492 28.2619C222.468 28.2457 222.448 28.2256 222.423 28.2094C216.408 23.5543 208.548 20.9905 199.647 20.3526C199.631 20.3526 199.618 20.3526 199.602 20.3526C198.886 20.3001 198.165 20.2638 197.437 20.2355C197.404 20.2355 197.372 20.2355 197.34 20.2355C196.595 20.2113 195.846 20.1951 195.089 20.1951C180.323 20.1951 167.872 25.0441 161.052 35.4525L160.914 35.3153C161.452 34.6006 162.08 33.7932 162.618 32.9897L154.098 19.3917L137.955 3.28644C134.009 8.11923 132.665 8.92267 129.163 8.92267C127.637 8.92267 126.115 8.65216 124.229 8.20805C120.999 7.4046 117.862 7.1341 114.543 7.1341C106.65 7.1341 101.088 10.8001 95.7088 18.4954L97.6841 21.6284H0.372392V53.2979L3.95869 56.8751V59.7376H0.372392V91.4071L0.481681 91.5161V122.669L14.669 136.763V148.759H14.6852V148.928L14.7176 148.96C5.32278 152.15 0 160.661 0 171.683C0 172.099 0.00809548 172.507 0.0242864 172.91C0.0283342 173.028 0.0323819 173.149 0.0364297 173.266C0.0526206 173.621 0.0728593 173.972 0.101194 174.319C0.113337 174.505 0.133575 174.683 0.149766 174.865C0.165957 175.034 0.182148 175.204 0.202387 175.369C0.850026 181.155 3.03985 185.479 6.33471 188.753L17.3 199.65C23.3312 205.642 32.8353 207.64 42.2179 207.64C47.8888 207.64 52.9364 207.075 57.9151 205.561L59.0363 206.675H222.682L222.646 206.651C228.948 206.348 235.417 202.937 235.417 194.692C235.417 191.785 234.623 189.488 233.283 187.732L236.574 163.043H242.237V135.294L239.08 132.157V129.65H242.237V101.9L240.039 99.7161C246.815 93.7649 250.883 84.8301 250.883 72.625" fill="#F24957"/>
<path d="M4.85742 64.207H8.44777V48.8204H4.85742V26.0938H47.7311L54.5475 51.146H54.9077V26.0938H83.161V48.8204H79.5706V86.9296H44.7722L33.4709 47.5648H33.1107V66.8919H36.701V86.9296H4.85742V64.207Z" fill="white"/>
<path d="M84.2373 64.207H87.8236L92.1304 48.8204H87.1072V26.0978H143.792L154.377 64.207H157.963V86.9296H124.237V62.2368H115.356L114.64 66.8879H120.651V86.9296H84.2373V64.207ZM101.189 18.7578C104.869 13.925 109.082 11.5995 114.555 11.5995C118.59 11.5995 121.011 12.0476 123.253 12.5846C125.229 13.0328 126.84 13.3881 129.171 13.3881C132.579 13.3881 135.178 12.4029 137.153 10.4367L141.011 16.6099C137.336 21.4427 133.118 23.7683 127.645 23.7683C123.61 23.7683 121.189 23.3201 118.947 22.7831C116.971 22.335 115.36 21.9797 113.029 21.9797C109.621 21.9797 107.018 22.9648 105.047 24.931L101.189 18.7578ZM122.715 52.9346L119.845 40.677H119.485L116.615 52.9346H122.715Z" fill="white"/>
<path d="M159.938 56.5117C159.938 36.1147 172.584 24.6646 195.097 24.6646C217.611 24.6646 230.256 36.1147 230.256 56.5117C230.256 76.9087 217.611 88.3588 195.097 88.3588C172.584 88.3588 159.938 76.9087 159.938 56.5117Z" fill="white"/>
<path d="M18.6035 124.922H25.4402V109.087H22.2991V118.571H4.45264V91.5242H71.7382V118.571H53.8958V109.087H50.7507V124.922H57.5914V144.838H18.6035V124.922Z" fill="white"/>
<path d="M74.4863 124.922H77.6314V111.437H74.4863V91.5242H133.911V116.221H110.961V109.087H102.942V113.399H107.815V122.964H102.942V127.275H110.961V120.141H134.701V144.838H74.4863V124.922Z" fill="white"/>
<path d="M137.842 124.922H140.987V111.437H137.842V91.5242H176.595L179.736 105.009H180.052L183.197 91.5242H223.286V111.437H220.14V124.922H223.286V144.838H192.47V127.275H195.615V107.831H195.299L186.026 144.838H172.191L162.918 107.831H162.602V127.275H165.747V144.838H137.842V124.922Z" fill="white"/>
<path d="M3.04785 171.683C3.04785 159.034 10.5402 150.62 23.5173 150.62C28.2693 150.62 31.9244 151.71 34.4219 153.83H34.6648L35.1545 151.589H48.4959V173.742H28.8805V167.387C28.3948 167.084 27.7836 166.963 27.1157 166.963C25.104 166.963 23.8856 168.175 23.8856 170.896C23.8856 175.196 26.9336 177.008 33.5719 177.008C38.1418 177.008 43.0152 176.161 47.403 174.586L49.5362 190.505C44.6627 192.625 38.2632 193.715 31.2606 193.715C12.6774 193.715 3.0519 186.028 3.0519 171.683" fill="white"/>
<path d="M51.1147 177.372H53.5515V166.959H51.1147V151.585H75.7291V165.146H73.1709V168.473H80.724V165.146H78.1658V151.585H102.78V166.959H100.343V177.372H102.78V192.746H78.1658V179.189H80.724V175.858H73.1709V179.189H75.7291V192.746H51.1147V177.372Z" fill="white"/>
<path d="M105.342 177.372H107.779V166.959H105.342V151.585H151.397V170.653H133.608V165.146H127.394V168.473H131.171V175.858H127.394V179.189H133.608V173.682H152.009V192.746H105.342V177.372Z" fill="white"/>
<path d="M154.446 177.372H156.883V166.959H154.446V151.585H198.554V167.686H180.157V165.146H176.502V169.745H191.244V177.13H176.502V179.189H181.8V192.746H154.446V177.372Z" fill="white"/>
<path d="M199.715 151.585H223.718L220.549 175.434C218.112 174.162 214.821 173.556 211.717 173.556C208.612 173.556 205.321 174.162 202.885 175.434L199.715 151.585ZM201.055 184.756C201.055 179.189 205.135 175.797 211.717 175.797C218.299 175.797 222.379 179.189 222.379 184.756C222.379 190.324 218.294 193.715 211.717 193.715C205.139 193.715 201.055 190.324 201.055 184.756Z" fill="white"/>
<path d="M247.236 46.8784C246.734 46.6604 246.293 46.3657 245.92 45.9821C245.544 45.6026 245.248 45.1625 245.026 44.6619C244.803 44.1612 244.694 43.6243 244.694 43.055C244.694 42.4857 244.803 41.9487 245.018 41.4481C245.236 40.9475 245.532 40.5074 245.912 40.1359C246.293 39.7605 246.734 39.4617 247.236 39.2437C247.738 39.0216 248.276 38.9126 248.847 38.9126C249.418 38.9126 249.956 39.0216 250.458 39.2356C250.96 39.4536 251.401 39.7483 251.781 40.1279C252.162 40.5074 252.461 40.9475 252.676 41.4481C252.895 41.9487 253 42.4857 253 43.055C253 43.6243 252.891 44.1612 252.676 44.6619C252.457 45.1625 252.162 45.6026 251.781 45.974C251.401 46.3495 250.96 46.6483 250.458 46.8663C249.956 47.0884 249.418 47.1974 248.847 47.1974C248.276 47.1974 247.738 47.0884 247.236 46.8744M250.004 45.7762C250.365 45.6187 250.68 45.4088 250.948 45.1423C251.215 44.8759 251.429 44.565 251.583 44.2016C251.737 43.8382 251.814 43.4547 251.814 43.055C251.814 42.6553 251.737 42.2596 251.583 41.9003C251.429 41.541 251.219 41.226 250.948 40.9596C250.676 40.6891 250.365 40.4791 250.004 40.3257C249.644 40.1723 249.26 40.0956 248.847 40.0956C248.434 40.0956 248.062 40.1723 247.697 40.3257C247.333 40.4791 247.017 40.6891 246.754 40.9596C246.491 41.226 246.276 41.541 246.119 41.9003C245.961 42.2596 245.88 42.6432 245.88 43.055C245.88 43.4668 245.961 43.8382 246.119 44.2016C246.276 44.565 246.491 44.8799 246.754 45.1423C247.017 45.4048 247.333 45.6187 247.697 45.7762C248.062 45.9337 248.446 46.0144 248.847 46.0144C249.248 46.0144 249.644 45.9377 250.004 45.7762ZM247.305 45.0656C247.212 44.9687 247.163 44.8436 247.163 44.6861V41.4562C247.163 41.2987 247.212 41.1695 247.305 41.0767C247.398 40.9838 247.527 40.9353 247.685 40.9353H248.924C249.211 40.9353 249.454 40.9717 249.652 41.0484C249.855 41.1211 250.021 41.218 250.15 41.3391C250.284 41.4602 250.377 41.6015 250.438 41.759C250.494 41.9164 250.527 42.082 250.527 42.2475C250.527 42.5422 250.458 42.7926 250.32 42.9904C250.183 43.1923 249.996 43.3457 249.766 43.4507L250.385 44.3994C250.405 44.4439 250.429 44.4883 250.458 44.5408C250.482 44.5932 250.498 44.6498 250.498 44.7144C250.498 44.8638 250.45 44.9808 250.357 45.0697C250.264 45.1585 250.134 45.2029 249.976 45.2029C249.883 45.2029 249.794 45.1787 249.713 45.1221C249.632 45.0656 249.567 45.001 249.515 44.9162L248.721 43.6364H248.232V44.6821C248.232 44.8395 248.183 44.9687 248.09 45.0616C247.997 45.1544 247.867 45.2029 247.709 45.2029C247.539 45.2029 247.41 45.1544 247.313 45.0616M248.701 42.7562C248.956 42.7562 249.138 42.7239 249.256 42.6512C249.373 42.5826 249.43 42.4534 249.43 42.2637C249.43 42.1062 249.373 41.9931 249.256 41.9245C249.138 41.8559 248.98 41.8195 248.778 41.8195H248.223V42.7522H248.701V42.7562Z" fill="#F24957"/>
<path d="M17.16 16.17C14.5987 16.17 12.7117 15.626 11.499 14.538C10.2863 13.45 9.68 11.8973 9.68 9.88C9.68 7.85133 10.2863 6.24767 11.499 5.069C12.7117 3.89033 14.5987 3.301 17.16 3.301C20.7413 3.301 23.1383 4.53067 24.351 6.99C23.331 7.34133 22.1353 7.86833 20.764 8.571C20.4353 7.93633 19.914 7.466 19.2 7.16C18.4973 6.854 17.7777 6.701 17.041 6.701C15.953 6.701 15.1427 6.99 14.61 7.568C14.0773 8.13467 13.811 8.83733 13.811 9.676C13.811 10.5827 14.0943 11.325 14.661 11.903C15.239 12.4697 16.1173 12.753 17.296 12.753C18.2367 12.753 18.9847 12.6 19.54 12.294C20.0953 11.9767 20.5033 11.478 20.764 10.798C21.6933 11.2967 22.8833 11.8577 24.334 12.481C23.7673 13.8523 22.821 14.81 21.495 15.354C20.169 15.898 18.724 16.17 17.16 16.17ZM29.8651 12.566C33.1518 12.5433 35.8718 12.4867 38.0251 12.396C37.8778 12.974 37.7871 13.5293 37.7531 14.062C37.7191 14.5947 37.7021 15.2407 37.7021 16H25.7171C25.8078 13.8013 25.8531 11.7443 25.8531 9.829C25.8531 7.91367 25.8078 5.85667 25.7171 3.658H29.8651V12.566ZM48.5975 3.641H52.8135V10.407C52.7908 12.073 52.2185 13.45 51.0965 14.538C49.9858 15.626 48.1102 16.17 45.4695 16.17C42.7948 16.17 40.9645 15.6543 39.9785 14.623C38.9925 13.5803 38.5108 12.2147 38.5335 10.526V3.641H42.7495V10.254C42.7495 10.7527 42.7835 11.1607 42.8515 11.478C42.9308 11.784 43.1688 12.073 43.5655 12.345C43.9735 12.617 44.6252 12.753 45.5205 12.753C46.4952 12.753 47.2092 12.617 47.6625 12.345C48.1158 12.0617 48.3822 11.75 48.4615 11.41C48.5522 11.07 48.5975 10.6337 48.5975 10.101V3.641ZM64.1342 9.863C66.7182 9.863 68.0102 10.6847 68.0102 12.328C68.0102 13.0987 67.8345 13.756 67.4832 14.3C67.1319 14.8327 66.5029 15.252 65.5962 15.558C64.6895 15.8527 63.4315 16 61.8222 16H54.1722C54.2629 13.8013 54.3082 11.7443 54.3082 9.829C54.3082 7.91367 54.2629 5.85667 54.1722 3.658H58.1672V3.675H61.7882C63.1935 3.675 64.2985 3.794 65.1032 4.032C65.9192 4.25867 66.4915 4.593 66.8202 5.035C67.1602 5.477 67.3302 6.038 67.3302 6.718C67.3302 7.40933 67.0865 8.027 66.5992 8.571C66.1232 9.10367 65.3015 9.53433 64.1342 9.863ZM58.1672 6.769V8.35H61.4312C62.1339 8.35 62.6212 8.28767 62.8932 8.163C63.1765 8.03833 63.3182 7.81167 63.3182 7.483C63.3182 7.22233 63.1709 7.041 62.8762 6.939C62.5929 6.82567 62.1112 6.769 61.4312 6.769H58.1672ZM61.4312 12.889C62.0205 12.889 62.4682 12.8663 62.7742 12.821C63.0915 12.7643 63.3182 12.6737 63.4542 12.549C63.5902 12.413 63.6582 12.2317 63.6582 12.005C63.6582 11.7103 63.4939 11.5007 63.1652 11.376C62.8479 11.24 62.2699 11.172 61.4312 11.172H58.1672V12.889H61.4312ZM73.3746 12.889C77.6813 12.8663 80.8036 12.804 82.7416 12.702C82.6623 13.1667 82.6113 13.6483 82.5886 14.147C82.5773 14.6343 82.5716 15.252 82.5716 16H69.3626C69.4533 13.8013 69.4986 11.7443 69.4986 9.829C69.4986 7.91367 69.4533 5.85667 69.3626 3.658H82.5716V6.735H73.3746V8.367C73.9186 8.37833 74.7233 8.384 75.7886 8.384C77.5906 8.384 79.455 8.35 81.3816 8.282V11.206C79.455 11.138 77.5906 11.104 75.7886 11.104C74.7233 11.104 73.9186 11.1097 73.3746 11.121V12.889Z" fill="white"/>
<path d="M183.849 199.901L212.385 226.753L208.074 199.364L183.849 199.901Z" fill="#F24957"/>
<path d="M191.252 216.147L214.939 243L210.633 215.61L191.252 216.147Z" fill="#F24957"/>
<path d="M194.579 40.2733L198.287 51.6628H210.292L200.582 58.7L204.29 70.0855L194.579 63.0483L184.869 70.0855L188.576 58.7L178.866 51.6628H190.871L194.579 40.2733Z" fill="#F24957"/>
</g>
<defs>
<clipPath id="clip0_56_665">
<rect width="253" height="243" fill="white"/>
</clipPath>
</defs>
</svg>
