<svg width="790" height="70" viewBox="0 0 790 70" fill="none" xmlns="http://www.w3.org/2000/svg">
<path d="M0.23877 44.9247H3.21913V32.1075H0.23877V13.1729H35.8158L41.4738 34.0428H41.7685V13.1729H65.2109V32.1075H62.2386V63.8594H33.3594L23.9841 31.0579H23.6892V47.1634H26.6615V63.8594H0.23877V44.9247Z" fill="white"/>
<path d="M66.1116 44.9247H69.092L72.662 32.1075H68.4943V13.1729H115.526L124.312 44.9247H127.293V63.8594H99.306V43.2846H91.9367L91.3389 47.1634H96.3255V63.8594H66.1116V44.9247ZM80.1786 7.06359C83.2327 3.03721 86.7291 1.10192 91.2652 1.10192C94.6141 1.10192 96.6203 1.47094 98.4871 1.92196C100.125 2.29098 101.468 2.59439 103.4 2.59439C106.225 2.59439 108.386 1.77435 110.024 0.134277L113.226 5.27591C110.171 9.3023 106.675 11.2376 102.139 11.2376C98.7901 11.2376 96.7839 10.8686 94.9171 10.4175C93.2795 10.0485 91.9366 9.74511 90.0042 9.74511C87.1794 9.74511 85.0177 10.5652 83.3801 12.2052L80.1786 7.06359ZM98.0368 35.5353L95.654 25.3258H95.3593L92.9765 35.5353H98.0368Z" fill="white"/>
<path d="M128.922 38.512C128.922 21.5208 139.419 11.9756 158.096 11.9756C176.773 11.9756 187.27 21.5126 187.27 38.512C187.27 55.5114 176.773 65.0484 158.096 65.0484C139.419 65.0484 128.922 55.5114 128.922 38.512Z" fill="white"/>
<path d="M212.162 45.2281H218.941V29.4588H215.822V38.9056H198.135V11.9756H264.844V38.9056H247.149V29.4588H244.038V45.2281H250.809V65.0484H212.162V45.2281Z" fill="white"/>
<path d="M267.562 45.2281H270.682V31.8041H267.562V11.9756H326.475V36.5603H303.72V29.4588H295.778V33.7558H300.609V43.2764H295.778V47.5652H303.72V40.4637H327.253V65.0484H267.562V45.2281Z" fill="white"/>
<path d="M330.373 45.2281H333.492V31.8041H330.373V11.9756H368.791L371.911 25.3996H372.222L375.333 11.9756H415.078V31.8041H411.958V45.2281H415.078V65.0484H384.528V47.5652H387.648V28.2123H387.337L378.142 65.0484H364.427L355.231 28.2123H354.92V47.5652H358.04V65.0484H330.373V45.2281Z" fill="white"/>
<path d="M426.328 37.9215C426.328 22.3408 435.515 11.9838 451.433 11.9838C457.263 11.9838 461.742 13.3286 464.804 15.9363H465.099L465.697 13.181H482.056V40.4637H458V32.6405C457.402 32.2715 456.657 32.1157 455.83 32.1157C453.365 32.1157 451.867 33.6082 451.867 36.9621C451.867 42.2513 455.601 44.49 463.748 44.49C469.348 44.49 475.326 43.4486 480.705 41.5051L483.317 61.1122C477.34 63.7199 469.496 65.0648 460.907 65.0648C438.119 65.0648 426.312 55.6016 426.312 37.9298" fill="white"/>
<path d="M485.282 44.9247H488.271V32.1075H485.282V13.1729H515.463V29.8688H512.327V33.969H521.588V29.8688H518.452V13.1729H548.641V32.1075H545.653V44.9247H548.641V63.8594H518.452V47.1634H521.588V43.0632H512.327V47.1634H515.463V63.8594H485.282V44.9247Z" fill="white"/>
<path d="M551.777 44.9247H554.766V32.1075H551.777V13.1729H608.267V36.6505H586.446V29.8688H578.822V33.969H583.457V43.0632H578.822V47.1634H586.446V40.3817H609.012V63.8594H551.777V44.9247Z" fill="white"/>
<path d="M612 44.9247H614.989V32.1075H612V13.1729H666.091V33.0014H643.533V29.8688H639.046V35.5353H657.125V44.6295H639.046V47.1634H645.547V63.8594H612V44.9247Z" fill="white"/>
<path d="M667.516 13.1729H696.952L693.062 42.5384C690.074 40.9721 686.037 40.2259 682.229 40.2259C678.422 40.2259 674.385 40.9721 671.397 42.5384L667.507 13.1729H667.516ZM669.161 54.0189C669.161 47.1634 674.164 42.9894 682.238 42.9894C690.311 42.9894 695.314 47.1634 695.314 54.0189C695.314 60.8744 690.311 65.0484 682.238 65.0484C674.164 65.0484 669.161 60.8744 669.161 54.0189Z" fill="white"/>
<path d="M158.096 25.4817L160.995 34.4201H170.386L162.788 39.9471L165.695 48.8856L158.096 43.3585L150.506 48.8856L153.404 39.9471L145.814 34.4201H155.198L158.096 25.4817Z" fill="#FFE100"/>
<path d="M741.263 8.98114L764.681 31.524L783.653 31.1304L773.049 8.21851L741.263 8.98114Z" fill="#FFE100"/>
<path d="M755.994 31.8848L789.262 69.7459L778.879 31.1304L755.994 31.8848Z" fill="#FFE100"/>
</svg>
