<svg width="339" height="459" viewBox="0 0 339 459" fill="none" xmlns="http://www.w3.org/2000/svg">
<circle cx="229.368" cy="229.368" r="193.949" transform="rotate(-11.7452 229.368 229.368)" fill="#F24957"/>
<circle cx="229.368" cy="229.368" r="94.2038" transform="rotate(-11.7452 229.368 229.368)" fill="white"/>
<path fill-rule="evenodd" clip-rule="evenodd" d="M191.572 100.742L203.523 65.9689L213.463 64.7098L233.966 95.3621L223.979 96.6307L219.309 89.3569L203.599 91.3485L201 99.5458L191.572 100.742ZM212.513 61.4564C211.358 61.6031 210.264 61.5317 209.242 61.24C208.22 60.9483 207.281 60.6449 206.432 60.3336C205.583 60.0224 204.812 59.9059 204.123 59.9943C203.245 60.1054 202.635 60.42 202.292 60.9278C201.944 61.4418 201.779 62.008 201.798 62.6315L196.829 63.2636C196.742 61.1514 197.184 59.4107 198.15 58.0375C199.116 56.6643 200.566 55.8562 202.505 55.6122C203.816 55.4441 204.992 55.4986 206.032 55.7709C207.066 56.0443 208.014 56.3406 208.863 56.6518C209.714 56.9681 210.499 57.0764 211.22 56.9867C212.72 56.7958 213.464 55.9214 213.451 54.3635L218.327 53.7453C218.415 55.8888 217.976 57.6446 217.015 59.0168C216.05 60.39 214.552 61.2025 212.519 61.4604L212.513 61.4564ZM205.778 84.6974L215.578 83.4566L209.353 73.7541L205.778 84.6974ZM159.567 115.268L159.567 115.267L167.598 111.753L158.798 92.3186L158.842 92.299L184.579 104.319L191.191 101.427L177.545 71.301L169.509 74.817L177.159 91.7033L177.115 91.7229L154.777 81.2635L145.921 85.1423L159.567 115.267L159.562 115.269L159.567 115.268ZM240.023 95.2775C242.728 97.1859 246.182 98.472 250.382 99.1255L250.388 99.1295C254.621 99.7869 258.326 99.6192 261.503 98.6266C264.679 97.6339 267.245 95.9859 269.196 93.6888C271.152 91.3906 272.388 88.6334 272.907 85.4221C273.439 82.15 273.137 79.1224 272.008 76.3431C270.879 73.5639 268.962 71.22 266.256 69.3065C263.549 67.393 260.079 66.1051 255.846 65.4478C251.64 64.7952 247.943 64.972 244.748 65.9789C241.553 66.9859 238.978 68.641 237.027 70.9382C235.076 73.2353 233.837 76.0037 233.309 79.2484C232.791 82.4597 233.103 85.4589 234.248 88.2401C235.389 91.0223 237.316 93.364 240.023 95.2775ZM259.473 90.8755C257.337 92.2194 254.685 92.6461 251.511 92.1516C248.337 91.657 245.952 90.4477 244.348 88.5195C242.744 86.5913 242.18 84.1762 242.65 81.27L242.843 80.0759C243.313 77.1698 244.618 75.0417 246.749 73.6988C248.88 72.356 251.537 71.9282 254.711 72.4228C257.885 72.9173 260.271 74.1267 261.875 76.0548C263.479 77.983 264.043 80.3982 263.573 83.3043L263.38 84.4984C262.91 87.4046 261.605 89.5326 259.473 90.8755ZM290.238 111.251L303.194 88.4504L291.554 82.0703L294.964 76.0636L326.499 93.3504L323.089 99.3571L311.448 92.977L298.493 115.783L290.239 111.256L290.238 111.251ZM334.539 99.6553L311.187 123.365L311.179 123.378L333.835 144.917L338.704 139.972L322.842 124.887L327.446 120.212L341.541 133.613L346.211 128.872L332.117 115.471L336.46 111.061L352.085 125.915L356.954 120.97L334.539 99.6553ZM336.418 145.764L366.327 130.766L372.809 143.263L357.149 163.527L357.169 163.571L383.048 163.004L389.574 175.581L359.665 190.579L355.374 182.305L377.533 171.192L377.514 171.148L349.859 171.667L345.93 164.094L362.59 142.391L362.57 142.348L340.41 153.461L336.418 145.764ZM363.513 211.945C362.225 215.092 361.677 218.647 361.864 222.605L361.868 222.599C362.032 226.066 362.697 229.088 363.86 231.67C365.022 234.253 366.518 236.356 368.347 237.975C370.175 239.593 372.19 240.647 374.391 241.135L376.029 232.733C374.363 232.162 373.038 231.352 372.057 230.314C371.076 229.276 370.366 228.077 369.924 226.718C369.481 225.359 369.225 223.919 369.152 222.405C369.052 220.359 369.32 218.475 369.946 216.739C370.573 215.008 371.581 213.605 372.964 212.531C374.347 211.457 376.112 210.874 378.254 210.774L379.199 210.728C381.372 210.626 383.189 211.045 384.654 211.984C386.118 212.923 387.247 214.226 388.034 215.895C388.826 217.562 389.266 219.417 389.365 221.458C389.438 222.972 389.317 224.431 389.005 225.824C388.692 227.216 388.1 228.476 387.222 229.605C386.343 230.728 385.101 231.657 383.494 232.381L385.921 240.594C388.063 239.908 389.969 238.669 391.637 236.889C393.306 235.108 394.578 232.876 395.462 230.201C396.34 227.523 396.7 224.454 396.537 220.987C396.349 217.024 395.473 213.54 393.908 210.528C392.344 207.516 390.228 205.197 387.566 203.57C384.904 201.942 381.809 201.21 378.28 201.374C374.753 201.542 371.731 202.556 369.217 204.425C366.699 206.295 364.802 208.797 363.513 211.945ZM362.86 243.12L395.362 251.347L392.997 260.345L380.133 257.088L375.9 273.196L388.763 276.452L386.398 285.451L353.896 277.224L356.261 268.226L369.125 271.482L373.358 255.375L360.495 252.118L362.86 243.12ZM381.258 296.809L352.238 280.246L336.39 307.039L342.438 310.494L353.537 291.732L359.261 295L349.395 311.675L355.199 314.989L365.065 298.314L370.458 301.391L359.525 319.871L365.572 323.326L381.258 296.809ZM334.559 308.99L358.585 332.01L337.782 352.974L332.775 348.173L346.973 333.864L341.76 328.874L328.287 342.449L323.483 337.843L336.955 324.268L327.954 315.646L334.559 308.99ZM274.705 386.189L269.232 353.648L251.371 356.559C246.983 357.278 243.473 358.571 240.832 360.445C238.19 362.319 236.359 364.597 235.341 367.273C234.319 369.954 234.072 372.852 234.596 375.966C235.126 379.11 236.311 381.799 238.156 384.026C239.999 386.248 242.48 387.833 245.591 388.767C248.704 389.707 252.456 389.814 256.84 389.102L274.705 386.189ZM253.157 363.237L261.042 361.95L264.235 380.925L256.35 382.211C252.714 382.808 249.885 382.469 247.866 381.195C245.842 379.922 244.595 377.879 244.125 375.07L243.927 373.877C243.465 371.13 243.979 368.816 245.466 366.941C246.954 365.065 249.52 363.828 253.157 363.237ZM229.629 359.237L225.815 392.013L194.814 388.551L195.608 381.719L217.217 384.13L217.926 378.038L198.432 375.859L199.194 369.303L218.687 371.477L219.441 365.012L197.502 362.563L198.296 355.732L229.628 359.232L229.629 359.237ZM187.478 352.252C185.357 350.798 182.938 349.532 180.216 348.46L180.215 348.455C176.821 347.12 173.7 346.319 170.851 346.064C168 345.804 165.563 346.155 163.543 347.112C161.524 348.068 160.053 349.666 159.137 351.909C158.15 354.325 158.236 356.612 159.389 358.769C160.548 360.926 162.931 362.984 166.543 364.944L175.384 369.736C176.942 370.582 177.988 371.364 178.53 372.076C179.068 372.794 179.191 373.506 178.898 374.225C178.559 375.059 177.647 375.441 176.163 375.376C174.683 375.304 172.858 374.845 170.692 373.991C168.121 372.972 166.146 371.879 164.776 370.704C163.407 369.53 162.614 367.963 162.395 366.009L153.956 365.337C154.081 367.858 154.758 370.045 155.986 371.897C157.216 373.754 158.814 375.351 160.795 376.701C162.776 378.052 164.961 379.202 167.361 380.145C170.667 381.445 173.702 382.221 176.473 382.461C179.245 382.7 181.604 382.36 183.54 381.442C185.476 380.524 186.9 378.956 187.806 376.741C188.828 374.239 188.663 371.906 187.308 369.737C185.953 367.562 183.416 365.461 179.697 363.428L171.652 359.054C169.919 358.138 168.829 357.323 168.372 356.609C167.921 355.895 167.829 355.207 168.097 354.546C168.446 353.684 169.393 353.237 170.933 353.212C172.473 353.187 174.514 353.676 177.06 354.679C179.138 355.498 180.771 356.318 181.964 357.139C183.157 357.96 184.022 358.853 184.564 359.818C185.1 360.783 185.454 361.897 185.613 363.161L194.403 363.972C194.337 361.476 193.697 359.261 192.485 357.332C191.266 355.399 189.599 353.705 187.478 352.252ZM146.368 328.906C149.523 331.37 151.884 334.114 153.446 337.137C155.006 340.155 155.679 343.212 155.451 346.3C155.229 349.388 154.018 352.292 151.818 355.01C149.623 357.726 147.021 359.534 144.018 360.433C141.015 361.332 137.846 361.369 134.506 360.545C131.171 359.72 127.921 358.076 124.765 355.611C122.002 353.456 119.888 351.168 118.417 348.754C116.947 346.34 116.079 343.934 115.812 341.527C115.545 339.12 115.854 336.9 116.737 334.858L124.625 338.463C124.123 340.127 124.012 341.657 124.301 343.048C124.584 344.44 125.158 345.709 126.022 346.855C126.887 348.001 127.919 349.05 129.127 349.995C130.753 351.265 132.471 352.157 134.265 352.671C136.063 353.183 137.807 353.206 139.491 352.745C141.174 352.279 142.697 351.209 144.05 349.535L144.637 348.808C145.974 347.159 146.684 345.469 146.776 343.742C146.866 342.01 146.455 340.344 145.542 338.738C144.628 337.133 143.354 335.696 141.728 334.426C140.519 333.482 139.25 332.729 137.916 332.159C136.584 331.593 135.197 331.329 133.752 331.371C132.312 331.413 130.818 331.861 129.282 332.718L123.925 325.98C125.748 324.674 127.881 323.874 130.327 323.59C132.773 323.305 135.369 323.581 138.111 324.417C140.857 325.252 143.61 326.75 146.374 328.91L146.368 328.906ZM124.052 310.702C123.623 307.453 122.217 304.098 119.833 300.637L119.818 300.645C117.418 297.156 114.762 294.616 111.854 293.017C108.946 291.419 105.972 290.705 102.929 290.879C99.8905 291.053 96.9996 292.05 94.257 293.877C91.462 295.735 89.4224 298.019 88.1277 300.73C86.8381 303.44 86.4046 306.418 86.8335 309.667C87.2623 312.917 88.6811 316.28 91.0817 319.769C93.4656 323.23 96.125 325.759 99.0557 327.363C101.985 328.962 104.975 329.679 108.014 329.505C111.057 329.33 113.962 328.325 116.728 326.483C119.471 324.656 121.486 322.383 122.767 319.659C124.055 316.939 124.481 313.952 124.052 310.702ZM107.494 299.762C109.951 300.371 112.078 301.981 113.881 304.596C115.684 307.211 116.414 309.756 116.077 312.224C115.74 314.691 114.329 316.751 111.85 318.403L110.834 319.08C108.355 320.731 105.889 321.252 103.431 320.642C100.974 320.033 98.8466 318.422 97.0438 315.807C95.2411 313.192 94.5104 310.648 94.8477 308.18C95.1849 305.712 96.5957 303.652 99.0748 302.001L100.091 301.324C102.57 299.673 105.036 299.152 107.494 299.762ZM107.582 282.578L75.4965 292.302L72.6455 283.2L85.9068 262.657L85.8972 262.611L67.9068 268.059L65.3196 259.8L97.4051 250.076L99.5323 256.869L84.287 280.544L84.2966 280.59L105 274.318L107.587 282.577L107.582 282.578ZM70.1469 236.217L96.7116 235.541L96.7168 235.54L96.4773 226.253L69.9125 226.928L69.577 213.833L62.5794 214.01L63.4848 249.489L70.4824 249.312L70.1469 236.217ZM101.115 196.028C100.072 200.085 98.4649 203.35 96.2845 205.832C94.1041 208.313 91.5551 209.989 88.6323 210.861C85.7106 211.738 82.6437 211.775 79.4335 210.983C76.1945 210.18 73.4988 208.723 71.3412 206.613C69.1877 204.496 67.7401 201.835 67.0065 198.616C66.2739 195.403 66.4233 191.766 67.466 187.71C68.5136 183.626 70.1276 180.343 72.308 177.862C74.4884 175.381 77.0385 173.71 79.9542 172.855C82.8739 171.994 85.9647 171.967 89.2378 172.779C92.4479 173.572 95.1272 175.027 97.2847 177.137C99.4434 179.252 100.879 181.906 101.603 185.105C102.327 188.305 102.162 191.944 101.115 196.028ZM94.1451 194.307C94.9303 191.242 94.7388 188.608 93.5645 186.402C92.3902 184.196 90.3538 182.736 87.4492 182.018L86.2601 181.723C83.3555 181.005 80.8575 181.347 78.7587 182.742C76.661 184.141 75.2216 186.37 74.4313 189.437C73.6461 192.502 73.8376 195.136 75.0119 197.342C76.1862 199.548 78.2226 201.008 81.1272 201.726L82.3163 202.021C85.2209 202.739 87.7189 202.397 89.8177 201.002C91.9154 199.603 93.3548 197.374 94.1451 194.307ZM110.984 167.401C112.78 165.568 114.429 163.417 115.935 160.942L115.936 160.947C117.812 157.864 119.103 154.959 119.81 152.231C120.516 149.503 120.547 147.082 119.903 144.973C119.259 142.865 117.88 141.191 115.772 139.951C113.5 138.618 111.188 138.343 108.837 139.129C106.487 139.916 104.042 141.908 101.504 145.111L95.3038 152.949C94.2105 154.327 93.262 155.222 92.4583 155.635C91.6557 156.052 90.917 156.061 90.2423 155.661C89.4579 155.199 89.2161 154.258 89.5146 152.826C89.8142 151.399 90.5611 149.702 91.7603 147.732C93.1824 145.396 94.5955 143.652 95.9893 142.502C97.3882 141.351 99.0854 140.824 101.085 140.916L103.085 132.831C100.533 132.562 98.2324 132.875 96.1754 133.781C94.1173 134.682 92.2579 135.99 90.5911 137.702C88.9295 139.413 87.4303 141.359 86.1038 143.539C84.2704 146.545 83.0208 149.368 82.3418 152.022C81.6617 154.67 81.6357 157.011 82.2565 159.035C82.8783 161.064 84.2296 162.685 86.3127 163.909C88.6658 165.294 91.0421 165.493 93.4335 164.519C95.829 163.538 98.3407 161.406 100.966 158.111L106.625 150.985C107.819 149.449 108.807 148.514 109.596 148.184C110.385 147.854 111.087 147.874 111.711 148.237C112.52 148.714 112.82 149.702 112.605 151.201C112.396 152.699 111.581 154.605 110.175 156.918C109.027 158.802 107.946 160.263 106.935 161.292C105.923 162.321 104.891 163.023 103.838 163.397C102.784 163.77 101.607 163.937 100.31 163.897L98.1149 172.302C100.635 172.624 102.96 172.349 105.092 171.47C107.225 170.59 109.187 169.235 110.984 167.401Z" fill="white"/>
<path fill-rule="evenodd" clip-rule="evenodd" d="M186.842 179.458C215.499 171.358 231.293 211.174 205.509 224.348C172.765 241.084 152.571 189.139 186.842 179.458ZM189.445 194.065C179.957 197.741 183.413 213.345 193.761 212.663C209.894 211.601 204.43 188.259 189.445 194.065ZM253.449 178.299C259.781 176.123 265.749 182.519 262.551 188.591L207.76 270.515C201.688 277.395 191.134 270.239 195.56 262.301L251.54 179.293C252.136 178.921 252.782 178.53 253.449 178.299ZM256.934 224.893C286.529 215.927 302.325 258.446 274.418 270.505C242.355 284.356 223.964 234.881 256.934 224.893ZM259.979 239.415C250.382 243.109 254.015 258.69 264.296 258.017C280.286 256.966 275.065 233.61 259.979 239.415Z" fill="#F24957"/>
</svg>
